<?xml version="1.0" standalone="no"?><!DOCTYPE svg PUBLIC "-//W3C//DTD SVG 1.1//EN" "http://www.w3.org/Graphics/SVG/1.1/DTD/svg11.dtd"><svg t="1712117278643" class="icon" viewBox="0 0 1024 1024" version="1.1" xmlns="http://www.w3.org/2000/svg" p-id="27208" width="20" height="20" xmlns:xlink="http://www.w3.org/1999/xlink"><path d="M824.018851 478.68115c54.894238-54.782697 66.862827-136.315642 39.917128-201.324238l-96.733135 96.55201c-26.318412 26.27748-71.417563 24.243147-97.735975-2.033309-26.305109-26.27748-28.338419-71.250764-2.034333-97.527221l96.747461-96.553033c-65.12116-26.91807-147.057287-15.186887-201.938222 39.59581-54.349839 54.224995-67.210751 134.225027-39.122019 201.045899l-67.237357 67.098187L284.108175 314.082348l11.716856-25.524327-91.480504-60.82839-58.112536 57.986669 60.940954 91.341335 27.655873-13.793144 171.773202 171.480536L207.144292 733.811852c-12.720719 12.707416-12.720719 33.271778 0 45.949518l61.373813 61.275575c12.706393 12.678764 33.326013 12.678764 46.032406 0l199.456704-199.096501 28.200272 28.14399-7.817036 7.829316c-11.632945 11.592013-14.280238 26.305109-3.162016 37.422308l135.214565 134.978181c11.104919 11.090593 31.375591 13.904685 43.00956 2.312672l62.863746-62.751183c11.618619-11.592013 10.839883-33.912367-0.278339-44.974307L636.809075 609.924263c-11.118222-11.090593-27.92091-6.381337-39.554878 5.210675l-5.754051 5.768377-28.212552-28.14399 71.181179-71.056336C698.892039 543.522947 773.012154 529.590634 824.018851 478.68115L824.018851 478.68115 824.018851 478.68115zM308.79646 774.021645c-13.779841 13.765515-36.099173 13.765515-49.877991 0-13.765515-13.737886-13.765515-36.029588 0-49.795103 13.778818-13.736862 36.098149-13.736862 49.877991 0C322.575278 737.992057 322.575278 760.28376 308.79646 774.021645L308.79646 774.021645 308.79646 774.021645zM308.79646 774.021645" fill="#ffffff" p-id="27209"></path></svg>