<?xml version="1.0" standalone="no"?><!DOCTYPE svg PUBLIC "-//W3C//DTD SVG 1.1//EN" "http://www.w3.org/Graphics/SVG/1.1/DTD/svg11.dtd"><svg t="1712051333773" class="icon" viewBox="0 0 1024 1024" version="1.1" xmlns="http://www.w3.org/2000/svg" p-id="17126" width="64" height="64" xmlns:xlink="http://www.w3.org/1999/xlink"><path d="M417.685333 491.968l451.84-255.146667a17.749333 17.749333 0 0 1 26.474667 15.424v443.52c0 6.4-3.456 12.288-9.024 15.445334L435.136 966.4a17.728 17.728 0 0 1-26.474667-15.445333v-443.52c0-6.4 3.456-12.288 9.024-15.445334" fill="#74F0FE" p-id="17127"></path><path d="M636.672 368.298667l-219.029333 123.776a17.877333 17.877333 0 0 0-8.981334 15.552v142.805333l219.050667-123.776a17.856 17.856 0 0 0 8.96-15.530667v-142.826666z" fill="#61CCEF" p-id="17128"></path><path d="M388.48 460.16L636.672 320V60.416a17.984 17.984 0 0 0-2.176-8.597333 17.237333 17.237333 0 0 0-23.68-6.933334L158.336 300.458667A17.770667 17.770667 0 0 0 149.333333 315.946667v443.690666c0 2.986667 0.746667 5.973333 2.176 8.597334a17.237333 17.237333 0 0 0 23.658667 6.933333l189.994667-107.306667v-167.36c0-16.768 8.938667-32.234667 23.317333-40.362666" fill="#1279F8" p-id="17129"></path></svg>