<?xml version="1.0" encoding="UTF-8"?>
<svg width="132px" height="132px" viewBox="0 0 132 132" version="1.1" xmlns="http://www.w3.org/2000/svg" xmlns:xlink="http://www.w3.org/1999/xlink">
    <!-- Generator: Sketch 58 (84663) - https://sketch.com -->
    <title>9点图</title>
    <desc>Created with Sketch.</desc>
    <g id="9点图" stroke="none" stroke-width="1" fill="none" fill-rule="evenodd">
        <g id="Group-9">
            <path d="M1.5,1.5 L1.5,130.5 L130.5,130.5 L130.5,1.5 L1.5,1.5 Z" id="Rectangle" stroke="#919DA9"></path>
            <path d="M68,129 L68,132 L65,132 L65,129 L68,129 Z M132,129 L132,132 L129,132 L129,129 L132,129 Z M3,129 L3,132 L0,132 L0,129 L3,129 Z M132,64 L132,67 L129,67 L129,64 L132,64 Z M3,64 L3,67 L0,67 L0,64 L3,64 Z M68,0 L68,3 L65,3 L65,0 L68,0 Z M132,0 L132,3 L129,3 L129,0 L132,0 Z M3,0 L3,3 L0,3 L0,0 L3,0 Z" id="Combined-Shape" fill="#919DA9"></path>
        </g>
    </g>
</svg>